<svg width="17" height="17" viewBox="0 0 17 17" fill="none" xmlns="http://www.w3.org/2000/svg">
<path d="M16.6888 4.69058L13.8123 7.56713C13.6048 7.77461 13.3329 7.87834 13.0609 7.87834C12.789 7.87834 12.5171 7.77461 12.3096 7.56713C11.8947 7.15219 11.8947 6.47946 12.3096 6.06452L13.3724 5.00179H2.23291C1.64611 5.00179 1.17041 4.52609 1.17041 3.93929C1.17041 3.35249 1.64611 2.87679 2.23291 2.87679H13.3724L12.3096 1.81406C11.8947 1.39912 11.8947 0.726388 12.3096 0.311449C12.7246 -0.103491 13.3973 -0.103491 13.8123 0.311449L16.6888 3.188C17.1037 3.60291 17.1037 4.27567 16.6888 4.69058ZM14.186 11.9987H3.62761L4.69037 10.9359C5.10528 10.521 5.10528 9.84828 4.69037 9.43334C4.2754 9.0184 3.60271 9.0184 3.18773 9.43334L0.31118 12.3099C-0.103727 12.7248 -0.103727 13.3976 0.31118 13.8125L3.18773 16.6891C3.39522 16.8965 3.66712 17.0003 3.93905 17.0003C4.21099 17.0003 4.48289 16.8965 4.69037 16.6891C5.10528 16.2741 5.10528 15.6014 4.69037 15.1864L3.62761 14.1237H14.186C14.7728 14.1237 15.2485 13.648 15.2485 13.0612C15.2485 12.4744 14.7728 11.9987 14.186 11.9987Z" fill="white"/>
</svg>
