<svg width="22" height="24" viewBox="0 0 22 24" fill="none" xmlns="http://www.w3.org/2000/svg">
<path d="M10.9745 2.99609C10.4784 2.99609 10.0757 2.59342 10.0757 2.09727V1.19844C10.0757 0.702294 10.4784 0.299622 10.9745 0.299622C11.4707 0.299622 11.8733 0.702294 11.8733 1.19844V2.09727C11.8733 2.59342 11.4707 2.99609 10.9745 2.99609Z" fill="#595959"/>
<path d="M18.8188 10.8406C18.3226 10.8406 17.92 10.4379 17.92 9.94178C17.92 6.28896 14.9539 3.17634 11.3082 3.00376C7.6581 2.83523 4.4039 5.6463 4.0601 9.278C4.03943 9.49506 4.02909 9.71797 4.02909 9.94178C4.02909 10.4379 3.62642 10.8406 3.13027 10.8406C2.63412 10.8406 2.23145 10.4379 2.23145 9.94178C2.23145 9.66134 2.24448 9.38091 2.27054 9.10857C2.70333 4.53536 6.80062 0.992196 11.3932 1.20836C15.9835 1.42543 19.7176 5.3434 19.7176 9.94178C19.7176 10.4384 19.3149 10.8406 18.8188 10.8406Z" fill="#595959"/>
<path d="M20.5036 16.971C20.282 16.971 20.0595 16.8892 19.8856 16.7252C18.6362 15.5423 17.9194 13.8768 17.9194 12.156C17.9194 11.6599 18.3221 11.2572 18.8183 11.2572C19.3144 11.2572 19.7171 11.6599 19.7171 12.156C19.7171 13.3852 20.229 14.5752 21.1215 15.4197C21.4819 15.7608 21.4976 16.3297 21.1565 16.6906C20.9799 16.8766 20.7417 16.971 20.5036 16.971Z" fill="#595959"/>
<path d="M1.44479 16.971C1.20615 16.971 0.96841 16.8771 0.791791 16.6901C0.450687 16.3297 0.466416 15.7608 0.826845 15.4197C1.71938 14.5752 2.23126 13.3856 2.23126 12.156C2.23126 11.6599 2.63393 11.2572 3.13008 11.2572C3.62623 11.2572 4.02891 11.6599 4.02891 12.156C4.02891 13.8777 3.31209 15.5432 2.06273 16.7252C1.88836 16.8892 1.66635 16.971 1.44479 16.971Z" fill="#595959"/>
<path d="M10.9746 23.6691C8.53877 23.6691 6.48047 21.6108 6.48047 19.1749C6.48047 18.6788 6.88314 18.2761 7.37929 18.2761C7.87544 18.2761 8.27812 18.6788 8.27812 19.1749C8.27812 20.6364 9.5131 21.8714 10.9746 21.8714C12.4361 21.8714 13.6711 20.6364 13.6711 19.1749C13.6711 18.6788 14.0737 18.2761 14.5699 18.2761C15.066 18.2761 15.4687 18.6788 15.4687 19.1749C15.4687 21.6108 13.4104 23.6691 10.9746 23.6691Z" fill="#595959"/>
<path d="M2.68032 20.0738C1.5851 20.0738 0.610779 19.4042 0.19777 18.3678C-0.215689 17.3301 0.0310381 16.1729 0.826497 15.4197C1.18692 15.0781 1.75543 15.0939 2.09743 15.4543C2.43854 15.8147 2.42326 16.3837 2.06283 16.7252C1.66914 17.0982 1.81385 17.5679 1.86778 17.7027C1.92126 17.8366 2.13833 18.2761 2.68032 18.2761C3.17647 18.2761 3.57914 18.6788 3.57914 19.175C3.57914 19.6711 3.17692 20.0738 2.68032 20.0738Z" fill="#595959"/>
<path d="M19.268 20.0737C18.7718 20.0737 18.3691 19.6711 18.3691 19.1749C18.3691 18.6788 18.7718 18.2761 19.268 18.2761C19.8104 18.2761 20.0279 17.8348 20.0818 17.6995C20.1353 17.5651 20.2796 17.0973 19.8859 16.7247C19.5255 16.3832 19.5097 15.8147 19.8508 15.4538C20.1924 15.0934 20.7609 15.0776 21.1218 15.4187C21.9172 16.172 22.1644 17.3283 21.7519 18.3642C21.3384 19.4028 20.3632 20.0737 19.268 20.0737Z" fill="#595959"/>
<path d="M3.12978 13.0544C2.63363 13.0544 2.23096 12.6517 2.23096 12.1555V9.94173C2.23096 9.44558 2.63363 9.04291 3.12978 9.04291C3.62594 9.04291 4.02861 9.44558 4.02861 9.94173V12.1555C4.02861 12.6517 3.62639 13.0544 3.12978 13.0544Z" fill="#595959"/>
<path d="M18.8187 13.0544C18.3226 13.0544 17.9199 12.6517 17.9199 12.1555V9.94173C17.9199 9.44558 18.3226 9.04291 18.8187 9.04291C19.3149 9.04291 19.7176 9.44558 19.7176 9.94173V12.1555C19.7176 12.6517 19.3149 13.0544 18.8187 13.0544Z" fill="#595959"/>
<path d="M19.2683 20.0738H2.68056C2.18441 20.0738 1.78174 19.6711 1.78174 19.1749C1.78174 18.6788 2.18441 18.2761 2.68056 18.2761H19.2679C19.764 18.2761 20.1667 18.6788 20.1667 19.1749C20.1667 19.6711 19.7645 20.0738 19.2683 20.0738Z" fill="#595959"/>
</svg>
