<svg width="24" height="24" viewBox="0 0 24 24" fill="none" xmlns="http://www.w3.org/2000/svg">
<path d="M23.376 0.624365C23.0549 0.303271 22.5349 0.303271 22.2139 0.624365L15.0357 7.80247C14.7146 8.12329 14.7146 8.64383 15.0357 8.96465C15.1963 9.12519 15.4064 9.20549 15.6169 9.20549C15.827 9.20549 16.0374 9.12519 16.198 8.96465L23.376 1.78658C23.6971 1.46572 23.6971 0.945178 23.376 0.624365Z" fill="white"/>
<path d="M23.3761 0.624389C23.2221 0.470123 23.0128 0.383545 22.795 0.383545C22.793 0.383545 22.7908 0.383545 22.7889 0.383545L15.6109 0.438389C15.1566 0.441951 14.7914 0.812639 14.7949 1.26662C14.7985 1.7184 15.1659 2.08225 15.6169 2.08225C15.6185 2.08225 15.6207 2.08225 15.6229 2.08225L21.9667 2.03373L21.9182 8.37728C21.9149 8.83126 22.2801 9.20195 22.7341 9.20551C22.736 9.20551 22.738 9.20551 22.7402 9.20551C23.1911 9.20551 23.5585 8.84167 23.5621 8.38989L23.6169 1.21183C23.6185 0.991514 23.5317 0.780014 23.3761 0.624389Z" fill="white"/>
<path d="M23.376 22.5969L16.1979 15.4192C15.8768 15.0981 15.3568 15.0981 15.0357 15.4192C14.7146 15.7403 14.7146 16.2605 15.0357 16.5813L22.2138 23.7592C22.3744 23.9197 22.5845 24 22.7949 24C23.0051 24 23.2155 23.9197 23.376 23.7592C23.6971 23.438 23.6971 22.9177 23.376 22.5969Z" fill="white"/>
<path d="M23.5621 15.9943C23.5588 15.5403 23.1911 15.1841 22.7341 15.1783C22.2799 15.1816 21.9147 15.5526 21.9182 16.0063L21.9665 22.3498L15.6229 22.3016C15.621 22.3016 15.6188 22.3016 15.6169 22.3016C15.1659 22.3016 14.7985 22.6657 14.7949 23.1175C14.7917 23.5712 15.1569 23.9419 15.6109 23.9455L22.7889 24C22.7906 24 22.7928 24 22.795 24C23.0128 24 23.2218 23.9134 23.3761 23.7594C23.5317 23.6035 23.6186 23.392 23.6169 23.172L23.5621 15.9943Z" fill="white"/>
<path d="M8.74614 7.4189L1.56831 0.240837C1.24722 -0.0799756 0.726672 -0.0802568 0.405859 0.240837C0.0847656 0.561649 0.0847656 1.0822 0.405859 1.40301L7.58369 8.58107C7.74424 8.74162 7.95466 8.82192 8.16508 8.82192C8.37522 8.82192 8.58564 8.74162 8.74619 8.58107C9.06723 8.26026 9.06723 7.73971 8.74614 7.4189Z" fill="white"/>
<path d="M8.17163 0.0547969L0.993525 0C0.991322 0 0.9894 0 0.987243 0C0.769181 0 0.560118 0.0865781 0.406134 0.240844C0.250228 0.396469 0.16365 0.607969 0.165056 0.828234L0.219853 8.0063C0.223415 8.45808 0.590822 8.82192 1.04176 8.82192C1.04396 8.82192 1.04617 8.82192 1.04832 8.82192C1.50231 8.81836 1.86751 8.44767 1.86395 7.99369L1.81548 1.65014L8.15902 1.69861C8.16095 1.69861 8.16315 1.69861 8.16531 1.69861C8.61624 1.69861 8.98365 1.33477 8.98721 0.882984C8.99082 0.429047 8.62562 0.0583594 8.17163 0.0547969Z" fill="white"/>
<path d="M8.58117 15.4192C8.26008 15.0981 7.73953 15.0981 7.41872 15.4192L0.240609 22.5969C-0.0802031 22.9177 -0.0802031 23.438 0.240609 23.7591C0.401156 23.9197 0.611578 23.9999 0.822 23.9999C1.03214 23.9999 1.24256 23.9197 1.40311 23.7592L8.58117 16.5813C8.90198 16.2605 8.90226 15.7403 8.58117 15.4192Z" fill="white"/>
<path d="M7.99371 22.3014L1.65016 22.3496L1.69868 16.0061C1.70224 15.5524 1.33704 15.1817 0.883054 15.1781C0.881132 15.1781 0.878929 15.1781 0.876773 15.1781C0.425835 15.1781 0.0584292 15.5422 0.0548667 15.994L2.28988e-05 23.1717C-0.00161773 23.3917 0.0849604 23.6032 0.240585 23.7591C0.394851 23.9136 0.604148 24 0.821976 24C0.823898 24 0.826101 24 0.828257 24L8.00632 23.9452C8.4603 23.9419 8.82551 23.5709 8.82195 23.1172C8.81838 22.663 8.44108 22.3022 7.99371 22.3014Z" fill="white"/>
</svg>
