<svg width="22" height="19" viewBox="0 0 22 19" fill="none" xmlns="http://www.w3.org/2000/svg">
<path d="M21.3555 9.79788L14.1367 17.6729C13.4922 18.376 12.375 17.8838 12.375 16.876V12.376H6.53125C5.95977 12.376 5.5 11.8744 5.5 11.251V6.751C5.5 6.12756 5.95977 5.626 6.53125 5.626H12.375V1.126C12.375 0.122872 13.4879 -0.374003 14.1367 0.329122L21.3555 8.20413C21.7551 8.64475 21.7551 9.35725 21.3555 9.79788ZM8.25 17.4385V15.5635C8.25 15.2541 8.01797 15.001 7.73438 15.001H4.125C3.36445 15.001 2.75 14.3307 2.75 13.501V4.501C2.75 3.67131 3.36445 3.001 4.125 3.001H7.73438C8.01797 3.001 8.25 2.74787 8.25 2.4385V0.563497C8.25 0.254122 8.01797 0.000996965 7.73438 0.000996965H4.125C1.84766 0.000996965 0 2.01662 0 4.501V13.501C0 15.9854 1.84766 18.001 4.125 18.001H7.73438C8.01797 18.001 8.25 17.7479 8.25 17.4385Z" fill="#F24545"/>
</svg>
