<svg width="20" height="18" viewBox="0 0 20 18" fill="none" xmlns="http://www.w3.org/2000/svg">
<path d="M19.1018 15.6H1.02177C0.758899 15.6 0.545983 15.8685 0.545983 16.2V17.4C0.545983 17.7315 0.758899 18 1.02177 18H19.1018C19.3647 18 19.5776 17.7315 19.5776 17.4V16.2C19.5776 15.8685 19.3647 15.6 19.1018 15.6ZM2.94129 11.5977C3.12804 11.8542 3.39032 11.9997 3.66479 11.9993L7.54664 11.9926C7.85299 11.9921 8.15494 11.9006 8.42804 11.7256L17.0803 6.1888C17.8755 5.67993 18.5882 4.95357 19.0733 4.00221C19.6177 2.93423 19.6769 2.16136 19.4619 1.61537C19.2475 1.069 18.7262 0.66776 17.7297 0.586011C16.8421 0.513263 15.9592 0.808008 15.164 1.3165L12.2347 3.1911L5.7312 0.113894C5.65301 0.0474663 5.56217 0.00858352 5.46806 0.00126566C5.37396 -0.0060522 5.28001 0.0184604 5.19594 0.0722692L3.24074 1.32363C2.92345 1.5265 2.84673 2.06049 3.087 2.39348L7.7325 6.07218L4.66335 8.0364L2.51189 6.6688C2.43777 6.62167 2.35589 6.59718 2.27288 6.59731C2.18987 6.59744 2.10805 6.62219 2.03402 6.66955L0.840676 7.43341C0.530222 7.63216 0.448446 8.1504 0.675041 8.48639L2.94129 11.5977Z" fill="white"/>
</svg>
