<svg width="18" height="17" viewBox="0 0 18 17" fill="none" xmlns="http://www.w3.org/2000/svg">
<path d="M17.5497 14.7334H0.450071C0.201451 14.7334 7.9948e-05 14.9869 7.9948e-05 15.3V16.4333C7.9948e-05 16.7464 0.201451 17 0.450071 17H17.5497C17.7984 17 17.9997 16.7464 17.9997 16.4333V15.3C17.9997 14.9869 17.7984 14.7334 17.5497 14.7334ZM2.26551 10.9534C2.44213 11.1957 2.69019 11.3331 2.94977 11.3327L6.62114 11.3263C6.91088 11.3258 7.19645 11.2395 7.45475 11.0742L15.6378 5.84498C16.3899 5.36438 17.064 4.67837 17.5227 3.77987C18.0377 2.77121 18.0937 2.04129 17.8903 1.52563C17.6876 1.00962 17.1945 0.630663 16.2521 0.553455C15.4126 0.484748 14.5776 0.763119 13.8255 1.24336L11.055 3.01381L4.90414 0.107566C4.83019 0.0448293 4.74427 0.00810666 4.65527 0.00119535C4.56627 -0.00571596 4.47742 0.0174349 4.3979 0.0682542L2.54872 1.25009C2.24863 1.44169 2.17607 1.94602 2.40332 2.26051L6.79692 5.73484L3.89419 7.58993L1.85939 6.29831C1.78928 6.2538 1.71185 6.23067 1.63334 6.23079C1.55483 6.23092 1.47744 6.25429 1.40743 6.29902L0.278793 7.02044C-0.014826 7.20815 -0.0921683 7.6976 0.12214 8.01493L2.26551 10.9534Z" fill="#979797"/>
</svg>
