<svg width="27" height="19" viewBox="0 0 27 19" fill="none" xmlns="http://www.w3.org/2000/svg">
<path d="M4.26334 4.75C5.831 4.75 7.10557 3.68496 7.10557 2.375C7.10557 1.06504 5.831 0 4.26334 0C2.69567 0 1.42111 1.06504 1.42111 2.375C1.42111 3.68496 2.69567 4.75 4.26334 4.75ZM21.3167 4.75C22.8844 4.75 24.1589 3.68496 24.1589 2.375C24.1589 1.06504 22.8844 0 21.3167 0C19.749 0 18.4745 1.06504 18.4745 2.375C18.4745 3.68496 19.749 4.75 21.3167 4.75ZM26.9701 13.1553L24.945 6.26035C24.7984 5.75938 24.2566 5.40684 23.6216 5.3623C22.9554 5.72227 22.1649 5.9375 21.3123 5.9375C20.4596 5.9375 19.6691 5.72227 19.0029 5.3623C18.3679 5.40684 17.8261 5.75938 17.6795 6.26035L15.6544 13.1553C15.499 13.7156 16.0319 14.25 16.7514 14.25H19.185V18.1094C19.185 18.6029 19.6602 19 20.2509 19H22.3825C22.9732 19 23.4484 18.6029 23.4484 18.1094V14.25H25.882C26.6015 14.25 27.1344 13.7156 26.9701 13.1553ZM13.5006 0H12.0795C11.6887 0 11.3689 0.267188 11.3689 0.59375V18.4062C11.3689 18.7328 11.6887 19 12.0795 19H13.5006C13.8914 19 14.2111 18.7328 14.2111 18.4062V0.59375C14.2111 0.267188 13.8914 0 13.5006 0ZM6.57709 5.35859C5.91094 5.72227 5.11601 5.9375 4.26334 5.9375C3.41067 5.9375 2.61574 5.72227 1.94959 5.35859C0.857109 5.43652 0 6.19355 0 7.125V12.1719C0 12.6654 0.475185 13.0625 1.06583 13.0625H1.42111V18.1094C1.42111 18.6029 1.8963 19 2.48695 19H6.03973C6.63038 19 7.10557 18.6029 7.10557 18.1094V13.0625H7.46084C8.05149 13.0625 8.52668 12.6654 8.52668 12.1719V7.125C8.52668 6.19355 7.66957 5.43652 6.57709 5.35859Z" fill="white"/>
</svg>
