<svg width="20" height="21" viewBox="0 0 20 21" fill="none" xmlns="http://www.w3.org/2000/svg">
<path d="M19.7445 13.0234L17.9502 11.9818C18.1313 10.9996 18.1313 9.99194 17.9502 9.00968L19.7445 7.96815C19.9509 7.84961 20.0436 7.60404 19.9762 7.37541C19.5087 5.86816 18.7126 4.50486 17.6722 3.37019C17.5121 3.1966 17.251 3.15426 17.0488 3.27281L15.2544 4.31434C14.5005 3.66232 13.6328 3.1585 12.6935 2.82825V0.749432C12.6935 0.512336 12.5292 0.304877 12.2975 0.254071C10.7517 -0.0931051 9.16792 -0.0761697 7.6979 0.254071C7.46623 0.304877 7.30196 0.512336 7.30196 0.749432V2.83249C6.36687 3.16696 5.49917 3.67079 4.74099 4.31857L2.95084 3.27704C2.74445 3.1585 2.48751 3.1966 2.32745 3.37442C1.28706 4.50486 0.490969 5.86816 0.0234244 7.37965C-0.0481816 7.60828 0.0486971 7.85384 0.255091 7.97239L2.04945 9.01392C1.86833 9.99617 1.86833 11.0038 2.04945 11.9861L0.255091 13.0276C0.0486971 13.1462 -0.0439694 13.3917 0.0234244 13.6203C0.490969 15.1276 1.28706 16.4909 2.32745 17.6256C2.48751 17.7992 2.74866 17.8415 2.95084 17.723L4.7452 16.6814C5.49917 17.3334 6.36687 17.8373 7.30617 18.1675V20.2506C7.30617 20.4877 7.47044 20.6951 7.70211 20.7459C9.24796 21.0931 10.8317 21.0762 12.3017 20.7459C12.5334 20.6951 12.6977 20.4877 12.6977 20.2506V18.1675C13.6328 17.833 14.5005 17.3292 15.2586 16.6814L17.053 17.723C17.2594 17.8415 17.5163 17.8034 17.6764 17.6256C18.7168 16.4951 19.5129 15.1318 19.9804 13.6203C20.0436 13.3875 19.9509 13.1419 19.7445 13.0234ZM9.99771 13.8828C8.14017 13.8828 6.62802 12.3629 6.62802 10.4958C6.62802 8.62864 8.14017 7.10868 9.99771 7.10868C11.8553 7.10868 13.3674 8.62864 13.3674 10.4958C13.3674 12.3629 11.8553 13.8828 9.99771 13.8828Z" fill="#979797"/>
</svg>
