<svg width="25" height="28" viewBox="0 0 25 28" fill="none" xmlns="http://www.w3.org/2000/svg">
<path d="M12.5055 13.4509C11.8586 13.4509 11.3337 14.0383 11.3337 14.7634C11.3893 18.7146 10.9362 22.5236 9.9811 26.3326C9.8478 26.8641 10.0861 28 11.11 28C11.6217 28 12.092 27.6216 12.2375 27.0419C12.8981 24.4218 13.7531 20.1835 13.6769 14.7634C13.6774 14.0388 13.153 13.4509 12.5055 13.4509ZM12.4636 8.98133C9.47231 8.9775 7.38488 11.5555 7.42639 14.5097C7.46301 17.1314 7.24328 19.7548 6.77355 22.3054C6.6422 23.0152 7.0504 23.7103 7.68371 23.8563C8.32093 24.0023 8.93715 23.5468 9.06849 22.837C9.57338 20.0977 9.80923 17.2818 9.77016 14.4687C9.75014 13.0495 10.7428 11.5981 12.4289 11.6063C13.9577 11.632 15.2194 12.9921 15.2424 14.6398C15.28 17.2676 15.1052 19.9079 14.7243 22.4902C14.6184 23.2045 15.051 23.8804 15.6892 23.9985C16.6643 24.1806 16.9983 23.1727 17.0359 22.9173C17.4402 20.1813 17.6247 17.3824 17.5862 14.5988C17.5432 11.5473 15.2453 9.02726 12.4636 8.98133ZM7.05871 7.89961C6.55577 7.44351 5.81992 7.52773 5.41025 8.08992C4.15926 9.81258 3.48689 11.988 3.51814 14.2149C3.54695 16.2701 3.39753 18.3312 3.07331 20.3427C2.95905 21.0563 3.38142 21.7388 4.01863 21.8679C5.00058 22.0593 5.34042 21.058 5.38046 20.8091C5.73154 18.6304 5.89316 16.398 5.86191 14.1739C5.83896 12.5398 6.31114 11.0086 7.22912 9.74586C7.63684 9.18367 7.56066 8.35734 7.05871 7.89961ZM12.404 4.49093C11.6515 4.46851 10.8966 4.56968 10.1686 4.76273C9.5392 4.93007 9.14955 5.63664 9.29799 6.34265C9.4474 7.04758 10.0792 7.48179 10.7087 7.31773C11.2482 7.175 11.8058 7.11156 12.3688 7.11593C16.052 7.17773 19.094 10.4792 19.1502 14.4758C19.179 16.5473 19.0877 18.638 18.8777 20.6899C18.8044 21.4102 19.2659 22.0615 19.9085 22.1435C20.7249 22.2502 21.1541 21.4938 21.2063 20.9891C21.4282 18.8135 21.5243 16.6242 21.4939 14.4348C21.4178 9.03437 17.3401 4.57297 12.404 4.49093ZM24.7122 11.1327C24.5726 10.4262 23.9549 9.97336 23.3152 10.1336C22.6834 10.29 22.284 10.99 22.4236 11.6982C22.6536 12.8691 22.6634 13.7441 22.6531 15.067C22.6478 15.7927 23.1683 16.3844 23.8152 16.3904H23.825C24.4681 16.3904 24.9915 15.8102 24.9969 15.0888C25.0057 13.8759 25.0164 12.6766 24.7122 11.1327ZM22.7532 6.17148C20.3753 2.37672 16.4841 0.0705433 12.3439 0.00109015C8.93617 -0.0448474 5.78428 1.36226 3.44001 3.9889C1.17582 6.52804 -0.0444048 9.90062 0.00637703 13.4887L0.000517586 14.6628C-0.0185256 15.3874 0.490269 15.9923 1.13725 16.013C1.14848 16.0141 1.16069 16.0141 1.17241 16.0141C1.80327 16.0141 2.32428 15.4509 2.34283 14.7399L2.35064 13.4471C2.31011 10.576 3.2862 7.87664 5.09872 5.84554C6.99132 3.72367 9.55873 2.58234 12.3097 2.62664C15.7009 2.68297 18.8884 4.57133 20.8362 7.67922C21.2078 8.27312 21.9378 8.41476 22.4681 7.99969C22.9974 7.58297 23.1253 6.76429 22.7532 6.17148Z" fill="#2395FF"/>
</svg>
