<svg width="24" height="24" viewBox="0 0 24 24" fill="none" xmlns="http://www.w3.org/2000/svg">
<path d="M20.6711 3.69288C18.4059 1.3284 15.2716 -0.00600475 11.9971 2.0315e-05C5.37963 -0.00831435 0.00834417 5.34942 9.50004e-06 11.9669C-0.00410762 15.239 1.33014 18.3704 3.69287 20.6341C3.69975 20.6409 3.70231 20.6512 3.70914 20.6572C3.77852 20.7241 3.85394 20.7807 3.92423 20.8449C4.11703 21.0163 4.30983 21.1937 4.51293 21.3591C4.62173 21.4448 4.73485 21.5304 4.84627 21.6093C5.03821 21.7523 5.23016 21.8954 5.43065 22.0274C5.56691 22.1131 5.70745 22.1988 5.84708 22.2845C6.03215 22.3959 6.21641 22.5081 6.40751 22.6101C6.56948 22.6958 6.73482 22.7695 6.89935 22.8475C7.0793 22.9332 7.25669 23.0188 7.44091 23.0959C7.62512 23.1731 7.81024 23.2331 7.99702 23.2999C8.1838 23.3667 8.34492 23.4284 8.52401 23.4832C8.72625 23.5441 8.93361 23.5912 9.13927 23.6418C9.31063 23.6837 9.47687 23.7317 9.65341 23.766C9.88989 23.8132 10.1298 23.8431 10.3698 23.8757C10.5181 23.8963 10.6629 23.9254 10.8128 23.94C11.2053 23.9786 11.6011 24 12.0004 24C12.3997 24 12.7956 23.9786 13.1881 23.94C13.338 23.9254 13.4828 23.8963 13.6311 23.8757C13.871 23.8431 14.1109 23.8132 14.3474 23.766C14.5188 23.7317 14.6902 23.6803 14.8616 23.6418C15.0672 23.5912 15.2746 23.5441 15.4768 23.4832C15.6559 23.4284 15.829 23.3616 16.0038 23.2999C16.1786 23.2382 16.3774 23.1714 16.5599 23.0959C16.7424 23.0205 16.9215 22.9323 17.1015 22.8475C17.266 22.7695 17.4314 22.6958 17.5933 22.6101C17.7844 22.5081 17.9686 22.3959 18.1538 22.2845C18.2934 22.1988 18.434 22.1208 18.5702 22.0274C18.7707 21.8955 18.9627 21.7524 19.1546 21.6093C19.266 21.5235 19.3791 21.4464 19.4879 21.3591C19.691 21.1962 19.8838 21.0232 20.0766 20.8449C20.1469 20.7807 20.2223 20.7241 20.2917 20.6572C20.2985 20.6513 20.3011 20.641 20.308 20.6341C25.0865 16.0562 25.2491 8.47131 20.6711 3.69288ZM18.7452 19.7369C18.5892 19.874 18.4281 20.0043 18.2653 20.1303C18.1694 20.204 18.0734 20.2768 17.9748 20.3471C17.8197 20.4593 17.6621 20.5656 17.5018 20.6675C17.3853 20.7421 17.2662 20.814 17.1462 20.8843C16.9953 20.97 16.842 21.0557 16.6869 21.1414C16.5497 21.2117 16.4101 21.2777 16.2696 21.3428C16.1291 21.4079 15.9739 21.4773 15.8223 21.5382C15.6706 21.599 15.5095 21.6564 15.351 21.7095C15.2062 21.7592 15.0614 21.8106 14.9148 21.8543C14.7434 21.9057 14.5643 21.9477 14.3869 21.9906C14.2481 22.0231 14.111 22.06 13.9705 22.0874C13.7674 22.1269 13.5601 22.1543 13.3518 22.1825C13.2336 22.198 13.1162 22.2194 12.9971 22.2314C12.668 22.2631 12.3347 22.282 11.9979 22.282C11.6612 22.282 11.3278 22.2631 10.9988 22.2314C10.8797 22.2194 10.7623 22.198 10.644 22.1825C10.4358 22.1543 10.2284 22.1269 10.0253 22.0874C9.88477 22.06 9.74765 22.0232 9.60887 21.9906C9.43149 21.9478 9.25495 21.9049 9.08103 21.8543C8.93452 21.8106 8.78967 21.7592 8.64486 21.7095C8.48635 21.6547 8.3278 21.599 8.17355 21.5382C8.01931 21.4773 7.87366 21.4105 7.72624 21.3428C7.57883 21.2751 7.44603 21.2117 7.30896 21.1414C7.15386 21.0609 7.00048 20.976 6.84965 20.8843C6.7297 20.8141 6.61055 20.7421 6.49402 20.6675C6.3338 20.5656 6.1761 20.4593 6.021 20.3471C5.92244 20.2768 5.82649 20.204 5.73049 20.1303C5.56767 20.0043 5.4066 19.8732 5.25065 19.7369C5.21294 19.7086 5.17865 19.6726 5.14185 19.6401C5.18015 16.7251 7.05279 14.1512 9.81453 13.2176C11.1954 13.8745 12.7987 13.8745 14.1796 13.2176C16.9413 14.1512 18.8139 16.725 18.8523 19.6401C18.8163 19.6726 18.782 19.7052 18.7452 19.7369ZM9.00898 6.8705C9.93679 5.22044 12.0265 4.63495 13.6766 5.56276C15.3267 6.49057 15.9121 8.58031 14.9843 10.2304C14.6765 10.7779 14.2241 11.2302 13.6766 11.5381C13.6723 11.5381 13.6672 11.5381 13.662 11.5432C13.4348 11.6697 13.1946 11.7714 12.9457 11.8466C12.9011 11.8595 12.8599 11.8766 12.8128 11.8877C12.7271 11.91 12.6372 11.9254 12.5489 11.9408C12.3827 11.9699 12.2146 11.9868 12.0459 11.9914H11.9482C11.7796 11.9868 11.6114 11.9699 11.4452 11.9408C11.3595 11.9254 11.2687 11.91 11.1813 11.8877C11.1359 11.8766 11.0956 11.8595 11.0485 11.8466C10.7995 11.7714 10.5594 11.6698 10.3321 11.5432L10.3167 11.5381C8.66665 10.6103 8.08117 8.52056 9.00898 6.8705ZM20.3724 17.9409C19.8225 15.3761 18.1336 13.2017 15.7846 12.0343C17.7048 9.94258 17.5657 6.6902 15.474 4.76996C13.3822 2.84972 10.1298 2.9888 8.2096 5.08055C6.4044 7.04703 6.4044 10.0679 8.2096 12.0343C5.86058 13.2017 4.17166 15.3761 3.62177 17.9409C0.335907 13.3125 1.42423 6.89671 6.05263 3.61084C10.681 0.324972 17.0968 1.4133 20.3827 6.0417C21.6179 7.78159 22.2809 9.86279 22.2799 11.9966C22.2799 14.1285 21.6129 16.207 20.3724 17.9409Z" fill="#2395FF"/>
</svg>
